# ProBuilder 4.0.5
# https://unity3d.com/unity/features/worldbuilding/probuilder
# 22/06/2019 09:52:48

mtllib ./Undercrypt.mtl
o Undercrypt

g Undercrypt
v 94 0 95
v 94 0 96.81818
v 92.40909 0 95
v 92.40909 0 96.81818
v 94 0 98.63636
v 92.40909 0 98.63636
v 94 0 100.4545
v 92.40909 0 100.4545
v 94 0 102.2727
v 92.40909 0 102.2727
v 94 0 104.0909
v 92.40909 0 104.0909
v 94 0 105.9091
v 92.40909 0 105.9091
v 94 0 107.7273
v 92.40909 0 107.7273
v 94 0 109.5455
v 92.40909 0 109.5455
v 94 0 111.3636
v 92.40909 0 111.3636
v 94 0 113.1818
v 92.40909 0 113.1818
v 94 0 115
v 92.40909 0 115
v 90.81818 0 95
v 90.81818 0 96.81818
v 90.81818 0 98.63636
v 90.81818 0 100.4545
v 90.81818 0 102.2727
v 90.81818 0 104.0909
v 90.81818 0 105.9091
v 90.81818 0 107.7273
v 90.81818 0 109.5455
v 90.81818 0 111.3636
v 90.81818 0 113.1818
v 90.81818 0 115
v 89.22727 0 95
v 89.22727 0 96.81818
v 89.22727 0 98.63636
v 89.22727 0 100.4545
v 89.22727 0 102.2727
v 89.22727 0 104.0909
v 89.22727 0 105.9091
v 89.22727 0 107.7273
v 89.22727 0 109.5455
v 89.22727 0 111.3636
v 89.22727 0 113.1818
v 89.22727 0 115
v 87.63637 0 95
v 87.63637 0 96.81818
v 87.63637 0 98.63636
v 87.63637 0 100.4545
v 87.63637 0 102.2727
v 87.63637 0 104.0909
v 87.63637 0 105.9091
v 87.63637 0 107.7273
v 87.63637 0 109.5455
v 87.63637 0 111.3636
v 87.63637 0 113.1818
v 87.63637 0 115
v 86.04546 0 95
v 86.04546 0 96.81818
v 86.04546 0 98.63636
v 86.04546 0 100.4545
v 86.04546 0 102.2727
v 86.04546 0 104.0909
v 86.04546 0 105.9091
v 86.04546 0 107.7273
v 86.04546 0 109.5455
v 86.04546 0 111.3636
v 86.04546 0 113.1818
v 86.04546 0 115
v 84.45454 0 95
v 84.45454 0 96.81818
v 84.45454 0 98.63636
v 84.45454 0 100.4545
v 84.45454 0 102.2727
v 84.45454 0 104.0909
v 84.45454 0 105.9091
v 84.45454 0 107.7273
v 84.45454 0 109.5455
v 84.45454 0 111.3636
v 84.45454 0 113.1818
v 84.45454 0 115
v 82.86363 0 95
v 82.86363 0 96.81818
v 82.86363 0 98.63636
v 82.86363 0 100.4545
v 82.86363 0 102.2727
v 82.86363 0 104.0909
v 82.86363 0 105.9091
v 82.86363 0 107.7273
v 82.86363 0 109.5455
v 82.86363 0 111.3636
v 82.86363 0 113.1818
v 82.86363 0 115
v 81.27273 0 95
v 81.27273 0 96.81818
v 81.27273 0 98.63636
v 81.27273 0 100.4545
v 81.27273 0 102.2727
v 81.27273 0 104.0909
v 81.27273 0 105.9091
v 81.27273 0 107.7273
v 81.27273 0 109.5455
v 81.27273 0 111.3636
v 81.27273 0 113.1818
v 81.27273 0 115
v 79.68182 0 95
v 79.68182 0 96.81818
v 79.68182 0 98.63636
v 79.68182 0 100.4545
v 79.68182 0 102.2727
v 79.68182 0 104.0909
v 79.68182 0 105.9091
v 79.68182 0 107.7273
v 79.68182 0 109.5455
v 79.68182 0 111.3636
v 79.68182 0 113.1818
v 79.68182 0 115
v 78.09091 0 95
v 78.09091 0 96.81818
v 78.09091 0 98.63636
v 78.09091 0 100.4545
v 78.09091 0 102.2727
v 78.09091 0 104.0909
v 78.09091 0 105.9091
v 78.09091 0 107.7273
v 78.09091 0 109.5455
v 78.09091 0 111.3636
v 78.09091 0 113.1818
v 78.09091 0 115
v 76.5 0 95
v 76.5 0 96.81818
v 76.5 0 98.63636
v 76.5 0 100.4545
v 76.5 0 102.2727
v 76.5 0 104.0909
v 76.5 0 105.9091
v 76.5 0 107.7273
v 76.5 0 109.5455
v 76.5 0 111.3636
v 76.5 0 113.1818
v 76.5 0 115

vt -8.75 -10
vt -8.75 -8.181818
vt -7.159091 -10
vt -7.159091 -8.181818
vt -8.75 -6.363636
vt -7.159091 -6.363636
vt -8.75 -4.545455
vt -7.159091 -4.545455
vt -8.75 -2.727273
vt -7.159091 -2.727273
vt -8.75 -0.909091
vt -7.159091 -0.909091
vt -8.75 0.909091
vt -7.159091 0.909091
vt -8.75 2.727273
vt -7.159091 2.727273
vt -8.75 4.545454
vt -7.159091 4.545454
vt -8.75 6.363636
vt -7.159091 6.363636
vt -8.75 8.181818
vt -7.159091 8.181818
vt -8.75 10
vt -7.159091 10
vt -5.568182 -10
vt -5.568182 -8.181818
vt -5.568182 -6.363636
vt -5.568182 -4.545455
vt -5.568182 -2.727273
vt -5.568182 -0.909091
vt -5.568182 0.909091
vt -5.568182 2.727273
vt -5.568182 4.545454
vt -5.568182 6.363636
vt -5.568182 8.181818
vt -5.568182 10
vt -3.977273 -10
vt -3.977273 -8.181818
vt -3.977273 -6.363636
vt -3.977273 -4.545455
vt -3.977273 -2.727273
vt -3.977273 -0.909091
vt -3.977273 0.909091
vt -3.977273 2.727273
vt -3.977273 4.545454
vt -3.977273 6.363636
vt -3.977273 8.181818
vt -3.977273 10
vt -2.386364 -10
vt -2.386364 -8.181818
vt -2.386364 -6.363636
vt -2.386364 -4.545455
vt -2.386364 -2.727273
vt -2.386364 -0.909091
vt -2.386364 0.909091
vt -2.386364 2.727273
vt -2.386364 4.545454
vt -2.386364 6.363636
vt -2.386364 8.181818
vt -2.386364 10
vt -0.7954545 -10
vt -0.7954545 -8.181818
vt -0.7954545 -6.363636
vt -0.7954545 -4.545455
vt -0.7954545 -2.727273
vt -0.7954545 -0.909091
vt -0.7954545 0.909091
vt -0.7954545 2.727273
vt -0.7954545 4.545454
vt -0.7954545 6.363636
vt -0.7954545 8.181818
vt -0.7954545 10
vt 0.795455 -10
vt 0.795455 -8.181818
vt 0.795455 -6.363636
vt 0.795455 -4.545455
vt 0.795455 -2.727273
vt 0.795455 -0.909091
vt 0.795455 0.909091
vt 0.795455 2.727273
vt 0.795455 4.545454
vt 0.795455 6.363636
vt 0.795455 8.181818
vt 0.795455 10
vt 2.386364 -10
vt 2.386364 -8.181818
vt 2.386364 -6.363636
vt 2.386364 -4.545455
vt 2.386364 -2.727273
vt 2.386364 -0.909091
vt 2.386364 0.909091
vt 2.386364 2.727273
vt 2.386364 4.545454
vt 2.386364 6.363636
vt 2.386364 8.181818
vt 2.386364 10
vt 3.977273 -10
vt 3.977273 -8.181818
vt 3.977273 -6.363636
vt 3.977273 -4.545455
vt 3.977273 -2.727273
vt 3.977273 -0.909091
vt 3.977273 0.909091
vt 3.977273 2.727273
vt 3.977273 4.545454
vt 3.977273 6.363636
vt 3.977273 8.181818
vt 3.977273 10
vt 5.568182 -10
vt 5.568182 -8.181818
vt 5.568182 -6.363636
vt 5.568182 -4.545455
vt 5.568182 -2.727273
vt 5.568182 -0.909091
vt 5.568182 0.909091
vt 5.568182 2.727273
vt 5.568182 4.545454
vt 5.568182 6.363636
vt 5.568182 8.181818
vt 5.568182 10
vt 7.159091 -10
vt 7.159091 -8.181818
vt 7.159091 -6.363636
vt 7.159091 -4.545455
vt 7.159091 -2.727273
vt 7.159091 -0.909091
vt 7.159091 0.909091
vt 7.159091 2.727273
vt 7.159091 4.545454
vt 7.159091 6.363636
vt 7.159091 8.181818
vt 7.159091 10
vt 8.75 -10
vt 8.75 -8.181818
vt 8.75 -6.363636
vt 8.75 -4.545455
vt 8.75 -2.727273
vt 8.75 -0.909091
vt 8.75 0.909091
vt 8.75 2.727273
vt 8.75 4.545454
vt 8.75 6.363636
vt 8.75 8.181818
vt 8.75 10

vn 0 1 0

g Undercrypt
usemtl ProBuilderDefault
f 3/3/1 4/4/1 2/2/1 1/1/1
f 4/4/1 6/6/1 5/5/1 2/2/1
f 6/6/1 8/8/1 7/7/1 5/5/1
f 8/8/1 10/10/1 9/9/1 7/7/1
f 10/10/1 12/12/1 11/11/1 9/9/1
f 12/12/1 14/14/1 13/13/1 11/11/1
f 14/14/1 16/16/1 15/15/1 13/13/1
f 16/16/1 18/18/1 17/17/1 15/15/1
f 18/18/1 20/20/1 19/19/1 17/17/1
f 20/20/1 22/22/1 21/21/1 19/19/1
f 22/22/1 24/24/1 23/23/1 21/21/1
f 25/25/1 26/26/1 4/4/1 3/3/1
f 26/26/1 27/27/1 6/6/1 4/4/1
f 27/27/1 28/28/1 8/8/1 6/6/1
f 28/28/1 29/29/1 10/10/1 8/8/1
f 29/29/1 30/30/1 12/12/1 10/10/1
f 30/30/1 31/31/1 14/14/1 12/12/1
f 31/31/1 32/32/1 16/16/1 14/14/1
f 32/32/1 33/33/1 18/18/1 16/16/1
f 33/33/1 34/34/1 20/20/1 18/18/1
f 34/34/1 35/35/1 22/22/1 20/20/1
f 35/35/1 36/36/1 24/24/1 22/22/1
f 37/37/1 38/38/1 26/26/1 25/25/1
f 38/38/1 39/39/1 27/27/1 26/26/1
f 39/39/1 40/40/1 28/28/1 27/27/1
f 40/40/1 41/41/1 29/29/1 28/28/1
f 41/41/1 42/42/1 30/30/1 29/29/1
f 42/42/1 43/43/1 31/31/1 30/30/1
f 43/43/1 44/44/1 32/32/1 31/31/1
f 44/44/1 45/45/1 33/33/1 32/32/1
f 45/45/1 46/46/1 34/34/1 33/33/1
f 46/46/1 47/47/1 35/35/1 34/34/1
f 47/47/1 48/48/1 36/36/1 35/35/1
f 49/49/1 50/50/1 38/38/1 37/37/1
f 50/50/1 51/51/1 39/39/1 38/38/1
f 51/51/1 52/52/1 40/40/1 39/39/1
f 52/52/1 53/53/1 41/41/1 40/40/1
f 53/53/1 54/54/1 42/42/1 41/41/1
f 54/54/1 55/55/1 43/43/1 42/42/1
f 55/55/1 56/56/1 44/44/1 43/43/1
f 56/56/1 57/57/1 45/45/1 44/44/1
f 57/57/1 58/58/1 46/46/1 45/45/1
f 58/58/1 59/59/1 47/47/1 46/46/1
f 59/59/1 60/60/1 48/48/1 47/47/1
f 61/61/1 62/62/1 50/50/1 49/49/1
f 62/62/1 63/63/1 51/51/1 50/50/1
f 63/63/1 64/64/1 52/52/1 51/51/1
f 64/64/1 65/65/1 53/53/1 52/52/1
f 65/65/1 66/66/1 54/54/1 53/53/1
f 66/66/1 67/67/1 55/55/1 54/54/1
f 67/67/1 68/68/1 56/56/1 55/55/1
f 68/68/1 69/69/1 57/57/1 56/56/1
f 69/69/1 70/70/1 58/58/1 57/57/1
f 70/70/1 71/71/1 59/59/1 58/58/1
f 71/71/1 72/72/1 60/60/1 59/59/1
f 73/73/1 74/74/1 62/62/1 61/61/1
f 74/74/1 75/75/1 63/63/1 62/62/1
f 75/75/1 76/76/1 64/64/1 63/63/1
f 76/76/1 77/77/1 65/65/1 64/64/1
f 77/77/1 78/78/1 66/66/1 65/65/1
f 78/78/1 79/79/1 67/67/1 66/66/1
f 79/79/1 80/80/1 68/68/1 67/67/1
f 80/80/1 81/81/1 69/69/1 68/68/1
f 81/81/1 82/82/1 70/70/1 69/69/1
f 82/82/1 83/83/1 71/71/1 70/70/1
f 83/83/1 84/84/1 72/72/1 71/71/1
f 85/85/1 86/86/1 74/74/1 73/73/1
f 86/86/1 87/87/1 75/75/1 74/74/1
f 87/87/1 88/88/1 76/76/1 75/75/1
f 88/88/1 89/89/1 77/77/1 76/76/1
f 89/89/1 90/90/1 78/78/1 77/77/1
f 90/90/1 91/91/1 79/79/1 78/78/1
f 91/91/1 92/92/1 80/80/1 79/79/1
f 92/92/1 93/93/1 81/81/1 80/80/1
f 93/93/1 94/94/1 82/82/1 81/81/1
f 94/94/1 95/95/1 83/83/1 82/82/1
f 95/95/1 96/96/1 84/84/1 83/83/1
f 97/97/1 98/98/1 86/86/1 85/85/1
f 98/98/1 99/99/1 87/87/1 86/86/1
f 99/99/1 100/100/1 88/88/1 87/87/1
f 100/100/1 101/101/1 89/89/1 88/88/1
f 101/101/1 102/102/1 90/90/1 89/89/1
f 102/102/1 103/103/1 91/91/1 90/90/1
f 103/103/1 104/104/1 92/92/1 91/91/1
f 104/104/1 105/105/1 93/93/1 92/92/1
f 105/105/1 106/106/1 94/94/1 93/93/1
f 106/106/1 107/107/1 95/95/1 94/94/1
f 107/107/1 108/108/1 96/96/1 95/95/1
f 109/109/1 110/110/1 98/98/1 97/97/1
f 110/110/1 111/111/1 99/99/1 98/98/1
f 111/111/1 112/112/1 100/100/1 99/99/1
f 112/112/1 113/113/1 101/101/1 100/100/1
f 113/113/1 114/114/1 102/102/1 101/101/1
f 114/114/1 115/115/1 103/103/1 102/102/1
f 115/115/1 116/116/1 104/104/1 103/103/1
f 116/116/1 117/117/1 105/105/1 104/104/1
f 117/117/1 118/118/1 106/106/1 105/105/1
f 118/118/1 119/119/1 107/107/1 106/106/1
f 119/119/1 120/120/1 108/108/1 107/107/1
f 121/121/1 122/122/1 110/110/1 109/109/1
f 122/122/1 123/123/1 111/111/1 110/110/1
f 123/123/1 124/124/1 112/112/1 111/111/1
f 124/124/1 125/125/1 113/113/1 112/112/1
f 125/125/1 126/126/1 114/114/1 113/113/1
f 126/126/1 127/127/1 115/115/1 114/114/1
f 127/127/1 128/128/1 116/116/1 115/115/1
f 128/128/1 129/129/1 117/117/1 116/116/1
f 129/129/1 130/130/1 118/118/1 117/117/1
f 130/130/1 131/131/1 119/119/1 118/118/1
f 131/131/1 132/132/1 120/120/1 119/119/1
f 133/133/1 134/134/1 122/122/1 121/121/1
f 134/134/1 135/135/1 123/123/1 122/122/1
f 135/135/1 136/136/1 124/124/1 123/123/1
f 136/136/1 137/137/1 125/125/1 124/124/1
f 137/137/1 138/138/1 126/126/1 125/125/1
f 138/138/1 139/139/1 127/127/1 126/126/1
f 139/139/1 140/140/1 128/128/1 127/127/1
f 140/140/1 141/141/1 129/129/1 128/128/1
f 141/141/1 142/142/1 130/130/1 129/129/1
f 142/142/1 143/143/1 131/131/1 130/130/1
f 143/143/1 144/144/1 132/132/1 131/131/1

